Coordinates
version=1
nRows=25
nColumns=33
inDegrees=yes

Units are S.I. units (second, meters, Newtons, ...)
Angles are in degrees.

endheader
time	ground_thorax_rot_x	ground_thorax_rot_y	ground_thorax_rot_z	ground_thorax_tx	ground_thorax_ty	ground_thorax_tz	clav_prot_r	clav_elev_r	scapula_abduction_r	scapula_elevation_r	scapula_upward_rot_r	scapula_winging_r	shoulder_elv_r	plane_of_elev_r	axial_rot_r	elbow_flexion_r	pro_sup_r	wrist_flex_r	wrist_dev_r	clav_prot_l	clav_elev_l	scapula_abduction_l	scapula_elevation_l	scapula_upward_rot_l	scapula_winging_l	shoulder_elv_l	plane_of_elev_l	axial_rot_l	elbow_flexion_l	pro_sup_l	wrist_flex_l	wrist_dev_l	
5.0100	25.996996	27.249032	45.177183	-56.022582	772.915573	7.254369	14.629822	37.703900	34.256521	45.000000	-45.000000	-4399.363491	-1736.217414	29.059901	86.153950	744.417181	208.589078	11.121964	-4.975043	10.753597	-45.000000	-37.155755	45.000000	-44.999402	1173.217012	-1903.007312	139.779021	176.957055	361.167760	46.658686	9.516519	-18.795027	
5.0200	26.356792	26.852653	44.655848	-57.358700	773.276459	7.440264	14.839239	37.828915	34.474009	45.000000	-45.000000	-4399.489994	-1735.687367	29.865107	70.142740	739.157920	148.864559	13.268098	1.345508	10.750574	-45.000000	-37.078754	45.000000	-44.998928	1173.000327	-1902.623311	139.597872	177.965227	361.180590	45.084159	10.098783	-18.995870	
5.0300	26.771778	26.421557	44.071322	-58.771556	773.682745	7.615886	15.133258	37.970923	34.753975	45.000000	-45.000000	-4399.627876	-1735.132462	30.696080	53.398125	733.654636	86.353991	15.509184	7.912286	10.598699	-45.000000	-36.936385	45.000000	-44.998082	1172.754344	-1902.218098	139.407029	179.020091	361.196929	43.364412	10.690213	-19.179174	
5.0400	27.049799	26.101269	43.673852	-60.350721	774.168029	7.767140	15.258747	38.058725	34.954807	45.000000	-45.000000	-4399.827185	-1734.718227	31.202928	44.219262	730.787497	52.508397	16.756368	11.399025	10.588063	-45.000000	-36.899908	45.000000	-44.996560	1172.691137	-1901.860162	139.226703	179.590076	361.320656	42.185186	11.017676	-19.335194	
5.0500	27.280472	25.823176	43.340565	-62.110546	774.759555	7.895496	15.323338	38.124445	35.143127	45.000000	-45.000000	-4400.069503	-1734.368496	31.538119	39.052978	729.331314	33.878701	17.475948	13.221696	10.600231	-45.000000	-36.903867	45.000000	-44.993847	1172.722403	-1901.514661	139.045897	179.902394	361.516188	41.219946	11.196402	-19.468120	
5.0600	27.476293	25.578596	43.047535	-64.079113	775.489098	8.000793	15.343759	38.172333	35.327195	45.000000	-45.000000	-4400.352627	-1734.066305	31.724958	37.221008	729.061394	27.924030	17.757556	13.648434	10.626291	-45.000000	-36.950100	45.000000	-44.988954	1172.832774	-1901.172577	138.863972	179.999991	361.782682	40.398781	11.246529	-19.579024	
5.0700	27.677270	25.331940	42.734407	-66.266055	776.384390	8.086932	15.353287	38.214093	35.529495	45.000000	-45.000000	-4400.661899	-1733.774841	31.848015	36.892926	729.338460	27.723346	17.842140	13.421633	10.645421	-45.000000	-37.019250	45.000000	-44.980283	1172.979078	-1900.816215	138.676800	179.999983	362.099299	39.572970	11.228513	-19.675786	
5.0800	27.907522	25.064548	42.360533	-68.673698	777.467610	8.159185	15.387079	38.258973	35.761738	45.000000	-45.000000	-4400.986241	-1733.460726	31.966764	36.537052	729.636865	27.510535	17.931091	13.158480	10.635980	-45.000000	-37.104419	45.000000	-44.964486	1173.127766	-1900.433346	138.483699	179.999971	362.451386	38.627761	11.192435	-19.763309	
5.0900	28.168954	24.768819	41.920329	-71.305850	778.753920	8.221989	15.425501	38.303797	36.016777	45.000000	-45.000000	-4401.319805	-1733.124036	32.092485	36.154107	729.942023	27.300700	18.024131	12.868264	10.630277	-45.000000	-37.215123	45.000000	-44.936931	1173.282741	-1900.026913	138.284154	179.999947	362.834577	37.593273	11.138157	-19.847450	
5.1000	28.451817	24.452331	41.421316	-74.166318	780.250757	8.278948	15.477322	38.348345	36.283735	45.000000	-45.000000	-4401.657680	-1732.762563	32.214534	35.733195	730.254222	27.100568	18.120664	12.548077	10.623216	-45.000000	-37.364847	45.000000	-44.885497	1173.448504	-1899.600783	138.084048	179.999906	363.244719	36.490270	11.067571	-19.926984	
5.1100	28.759884	24.106619	40.863592	-77.257666	781.957310	8.332982	15.539412	38.380761	36.561147	45.000000	-45.000000	-4401.994262	-1732.379654	32.341692	35.264089	730.552804	26.920295	18.218302	12.202643	10.620424	-45.000000	-37.542624	45.000000	-44.799157	1173.633804	-1899.159585	137.882440	179.999831	363.670746	35.340121	10.984608	-20.003529	
5.1200	29.085081	23.735240	40.248079	-80.580004	783.864565	8.386616	15.621269	38.409820	36.835566	45.000000	-45.000000	-4402.323539	-1731.972724	32.466209	34.736653	730.847354	26.765188	18.315825	11.823383	10.615967	-45.000000	-37.762614	45.000000	-44.628330	1173.843497	-1898.715649	137.696538	179.999698	364.099807	34.165131	10.897355	-20.077790	
5.1300	29.437315	23.324556	39.568597	-84.130768	785.956195	8.442046	15.710640	38.415213	37.117173	45.000000	-45.000000	-4402.646856	-1731.551754	32.599732	34.141154	731.115604	26.651434	18.412900	11.422320	10.619356	-45.000000	-38.001278	45.000000	-44.367453	1174.083320	-1898.272322	137.518326	179.999459	364.519203	32.987796	10.807951	-20.152661	
5.1400	29.816065	22.869773	38.815519	-87.904513	788.209541	8.501158	15.805718	38.399215	37.408372	45.000000	-45.000000	-4402.967718	-1731.125985	32.739886	33.488627	731.366154	26.596265	18.510357	10.996109	10.621263	-45.000000	-38.267098	45.000000	-43.963418	1174.351392	-1897.842922	137.362893	179.999033	364.915215	31.830218	10.719815	-20.229752	
5.1500	30.225354	22.363581	37.991546	-91.893464	790.597242	8.565319	15.887959	38.352503	37.718104	45.000000	-45.000000	-4403.289654	-1730.705051	32.893749	32.791687	731.584108	26.627547	18.610585	10.562076	10.630103	-45.000000	-38.526708	45.000000	-43.435080	1174.643480	-1897.423103	137.222619	179.998265	365.281434	30.706673	10.629108	-20.310699	
5.1600	30.661128	21.809714	37.092924	-96.087567	793.088835	8.635378	15.952300	38.304314	38.039462	45.000000	-45.000000	-4403.613773	-1730.286596	33.054192	32.088777	731.793931	26.774443	18.717320	10.116272	10.633362	-45.000000	-38.785794	45.000000	-42.769346	1174.942900	-1897.019417	137.114953	179.996900	365.614266	29.628821	10.533629	-20.396454	
5.1700	31.120207	21.213768	36.136582	-100.475018	795.652836	8.711663	15.989482	38.251163	38.375298	45.000000	-45.000000	-4403.945622	-1729.875888	33.222337	31.405391	731.986764	27.073420	18.828253	9.666395	10.635890	-45.000000	-39.025579	45.000000	-42.027432	1175.246457	-1896.627598	137.025490	179.994424	365.917624	28.596216	10.432130	-20.486923	
5.1800	31.592164	20.590073	35.129575	-105.041882	798.258133	8.794349	16.007119	38.213120	38.712572	45.000000	-45.000000	-4404.288646	-1729.472529	33.389092	30.786282	732.185447	27.560700	18.938384	9.197700	10.622201	-45.000000	-39.269290	45.000000	-41.216475	1175.547044	-1896.260317	136.966543	179.990077	366.196463	27.605071	10.329894	-20.581654	
5.1900	32.052328	19.968882	34.125247	-109.772261	800.875415	8.883759	16.001632	38.186583	39.027219	45.000000	-45.000000	-4404.631255	-1729.068359	33.537578	30.205116	732.389366	28.286188	19.049582	8.728303	10.609799	-45.000000	-39.486949	45.000000	-40.456046	1175.833385	-1895.894711	136.924630	179.982046	366.455670	26.640088	10.225103	-20.677848	
5.2000	32.490413	19.362991	33.134819	-114.648121	803.477766	8.980763	15.984848	38.180666	39.304479	45.000000	-45.000000	-4404.970875	-1728.663479	33.662566	29.681562	732.616990	29.310015	19.151574	8.242907	10.592038	-45.000000	-39.688229	45.000000	-39.756008	1176.103779	-1895.537619	136.903660	179.968340	366.692842	25.692678	10.126406	-20.773599	
5.2100	32.896925	18.783263	32.186753	-119.650178	806.041200	9.086730	15.956224	38.177419	39.538285	45.000000	-45.000000	-4405.301736	-1728.259983	33.763182	29.192763	732.859302	30.712577	19.237026	7.752484	10.580979	-45.000000	-39.852469	45.000000	-39.177831	1176.361118	-1895.180009	136.888339	179.941891	366.909974	24.752781	10.034352	-20.866855	
5.2200	33.276793	18.223899	31.266174	-124.758685	808.544519	9.203322	15.923639	38.173830	39.732129	45.000000	-45.000000	-4405.628219	-1727.866446	33.848205	28.770857	733.128782	32.599163	19.289272	7.245427	10.565954	-45.000000	-39.996007	45.000000	-38.681261	1176.615620	-1894.840067	136.880960	179.899809	367.108985	23.817201	9.955234	-20.956904	
5.2300	33.627562	17.683203	30.385214	-129.954484	810.969539	9.332004	15.886383	38.174594	39.889460	45.000000	-45.000000	-4405.944809	-1727.486726	33.918675	28.448319	733.431268	35.075988	19.290089	6.727592	10.551520	-45.000000	-40.102208	45.000000	-38.256395	1176.872509	-1894.518627	136.885135	179.809646	367.288147	22.888335	9.892789	-21.041905	
5.2400	33.952122	17.161859	29.531464	-135.219405	813.301260	9.473670	15.846111	38.176755	40.002783	45.000000	-45.000000	-4406.250597	-1727.122053	33.977993	28.243649	733.798600	38.341506	19.226803	6.205232	10.530655	-45.000000	-40.181084	45.000000	-37.897995	1177.127446	-1894.220057	136.899587	179.689400	367.449412	21.960296	9.841731	-21.120681	
5.2500	34.255896	16.656566	28.704029	-140.536340	815.528221	9.628443	15.799869	38.178765	40.077533	45.000000	-45.000000	-4406.544030	-1726.776655	34.028175	28.182292	734.252745	42.618528	19.081980	5.691026	10.503088	-45.000000	-40.230134	45.000000	-37.605874	1177.380835	-1893.947345	136.924144	179.535497	367.593880	21.031317	9.799338	-21.191532	
